<?xml version="1.0" encoding="UTF-8"?>
<svg width="100%" height="100%" viewBox="0 0 250 250" version="1.1" xmlns="http://www.w3.org/2000/svg" xmlns:xlink="http://www.w3.org/1999/xlink">
    <title>twitter</title>
    <g id="Page-1" stroke="none" stroke-width="1" fill="none" fill-rule="evenodd">
        <g id="twitter">
            <rect id="Rectangle" x="0" y="0" width="250" height="250"></rect>
            <path d="M78.62,226.13969 C172.96,226.13969 224.56,147.97969 224.56,80.1996903 C224.56,77.9796903 224.56,75.7696903 224.41,73.5696903 C234.448314,66.3087989 243.113555,57.3184843 250,47.0196903 C240.638791,51.167708 230.708293,53.8879768 220.54,55.0896903 C231.24744,48.6795109 239.261235,38.5974102 243.09,26.7196903 C233.021575,32.6942435 222.006461,36.9048105 210.52,39.1696903 C194.620828,22.2636331 169.357194,18.1258162 148.895493,29.0764896 C128.433792,40.027163 117.86275,63.3429476 123.11,85.9496903 C81.8689574,83.8821857 43.4447578,64.402923 17.4,32.3596903 C3.78622756,55.7961376 10.7398788,85.7782851 33.28,100.82969 C25.117412,100.587766 17.1327937,98.3858221 10,94.4096903 C10,94.6196903 10,94.8396903 10,95.0596903 C10.0066813,119.47562 27.2175149,140.505042 51.15,145.33969 C43.598696,147.399091 35.6758059,147.700133 27.99,146.21969 C34.7094793,167.113919 53.9657456,181.427529 75.91,181.83969 C57.7473504,196.11401 35.3105951,203.862968 12.21,203.83969 C8.12903569,203.831856 4.05204065,203.584765 0,203.09969 C23.4563595,218.152456 50.749134,226.13686 78.62,226.09969" id="Path" fill="#000000" fill-rule="nonzero"></path>
        </g>
    </g>
</svg>