<?xml version="1.0" encoding="UTF-8"?>
<svg width="52px" height="52px" viewBox="0 0 64 64" version="1.1" xmlns="http://www.w3.org/2000/svg" xmlns:xlink="http://www.w3.org/1999/xlink">
    <title>Artboard</title>
    <g id="Artboard" stroke="none" stroke-width="1" fill="none" fill-rule="evenodd">
        <rect id="Rectangle" fill="#000000" x="0" y="0" width="64" height="64"></rect>
        <path d="M36.8505859,19.6396484 L36.8505859,17 L26.2421875,17 L26.2421875,19.6396484 L36.8505859,19.6396484 Z M31.5546875,47.1982422 C38.6435547,47.1982422 43.109375,42.4501953 43.109375,34.8300781 C43.109375,27.1933594 38.6435547,22.4287109 31.5546875,22.4287109 C24.4492188,22.4287109 20,27.1933594 20,34.8300781 C20,42.4501953 24.4492188,47.1982422 31.5546875,47.1982422 Z M31.5546875,43.0146484 C27.6201172,43.0146484 25.1132812,39.84375 25.1132812,34.8300781 C25.1132812,29.7998047 27.6367188,26.6123047 31.5546875,26.6123047 C35.4726562,26.6123047 37.9794922,29.7998047 37.9794922,34.8300781 C37.9794922,39.84375 35.4726562,43.0146484 31.5546875,43.0146484 Z" id="Ō" fill="#FFFFFF" fill-rule="nonzero"></path>
    </g>
</svg>